<svg xmlns="http://www.w3.org/2000/svg" xmlns:xlink="http://www.w3.org/1999/xlink" x="0px" y="0px" viewBox="0 0 1500 700" style="enable-background:new 0 0 1500 700;" xml:space="preserve"><style type="text/css">	.st0{display:none;}	.st1{display:inline;fill:#999999;}	.st2{fill:#FFFFFF;}	.st3{fill:#FF7F00;}	.st4{display:none;fill:#FF7F00;}	.st5{fill:#FFC382;}</style><g id="Layer_2" class="st0">	<rect class="st1" width="1500" height="700"></rect></g><g id="Layer_1">	<g id="My">		<path class="st2" d="M984.43,342.64v71.54h-14.84v-48.11l-9.15,22.22l-0.4,0.98l-9.49,23.04l-0.77,1.87h-11.23l-0.37-0.9   l-7.35-17.76l-12.2-29.46v48.11H903.8v-71.54c0-1.34,1.08-2.42,2.42-2.42h10.7c2.26,0,4.3,1.35,5.19,3.43l22.05,51.57l22.06-51.57   c0.89-2.08,2.93-3.43,5.19-3.43h10.59C983.35,340.22,984.43,341.3,984.43,342.64z"></path>		<path class="st2" d="M1054.22,340.22c1.66,0,2.72,1.76,1.96,3.23l0,0l-23.33,44.98v25.75h-14.83v-25.75l-23.27-44.67   c-0.84-1.61,0.33-3.54,2.15-3.54h9.17c2.19,0,4.18,1.26,5.11,3.24l14.37,30.55l14.26-30.53c0.93-1.99,2.93-3.27,5.13-3.27H1054.22   z"></path>		<g id="My_Line">			<rect x="903.8" y="414.18" class="st3" width="14.83" height="3.23"></rect>			<polygon class="st3" points="949.78,414.18 948.38,417.41 939.89,417.41 938.55,414.18    "></polygon>			<rect x="969.59" y="414.18" class="st3" width="14.84" height="3.23"></rect>			<rect x="1018.02" y="414.18" class="st3" width="14.83" height="3.23"></rect>			<polygon class="st4" points="1057.86,343.45 1032.85,391.66 1032.85,388.43 1056.18,343.45    "></polygon>		</g>	</g>	<g id="College">		<g id="EGE">			<path class="st2" d="M783.56,517.82l-80.37,0c0.69,8.29,3.59,14.78,8.7,19.47c5.11,4.7,11.39,7.04,18.85,7.04    c8.23,0,14.65-2.7,19.26-8.11c3.09-3.63,7.59-5.77,12.36-5.77l16.93,0c2.89,0,4.84,2.95,3.72,5.61    c-3.61,8.55-9.29,15.77-17.05,21.64c-9.39,7.12-20.93,10.67-34.6,10.67c-11.05,0-20.96-2.45-29.73-7.35    c-8.77-4.9-15.61-11.84-20.51-20.82c-4.9-8.98-7.35-19.34-7.35-31.08c0-11.88,2.41-22.3,7.25-31.28    c4.83-8.98,11.6-15.88,20.3-20.72c8.7-4.83,18.71-7.25,30.04-7.25c10.91,0,20.68,2.35,29.32,7.04    c8.63,4.7,15.33,11.36,20.1,19.99c4.77,8.63,7.15,18.54,7.15,29.73c0,2.69-0.12,5.21-0.35,7.56    C787.37,516.25,785.64,517.82,783.56,517.82z M757.89,498.35c-0.14-7.46-2.83-13.43-8.08-17.92c-5.25-4.49-11.67-6.73-19.27-6.73    c-7.18,0-13.23,2.18-18.13,6.53c-4.9,4.35-7.91,10.4-9.01,18.13H757.89z"></path>			<path class="st2" d="M876.6,454.94c6.49,3.39,11.6,7.77,15.33,13.16v-10.29c0-3.36,2.72-6.08,6.08-6.08h23.13v115.61    c0,10.63-2.14,20.13-6.42,28.49c-4.28,8.35-10.71,14.98-19.27,19.89c-8.57,4.9-18.92,7.35-31.08,7.35    c-16.3,0-29.66-3.8-40.09-11.39c-9.13-6.65-14.8-15.42-16.99-26.31c-0.5-2.47,1.45-4.77,3.97-4.77h19.96    c2.28,0,4.42,1.26,5.41,3.32c1.79,3.72,4.65,6.79,8.58,9.21c5.04,3.11,11.15,4.66,18.34,4.66c8.42,0,15.26-2.52,20.51-7.56    c5.25-5.04,7.87-12.67,7.87-22.89v-17.82c-3.73,5.39-8.88,9.88-15.43,13.47c-6.56,3.59-14.06,5.39-22.48,5.39    c-9.67,0-18.51-2.48-26.52-7.46c-8.01-4.97-14.33-11.98-18.96-21.03c-4.63-9.04-6.94-19.44-6.94-31.18    c0-11.6,2.31-21.89,6.94-30.87c4.63-8.98,10.91-15.88,18.85-20.72c7.94-4.83,16.81-7.25,26.62-7.25    C862.58,449.87,870.11,451.56,876.6,454.94z M887.79,490.99c-2.76-5.04-6.49-8.91-11.19-11.6c-4.7-2.69-9.74-4.04-15.12-4.04    c-5.39,0-10.36,1.32-14.92,3.94c-4.56,2.62-8.25,6.46-11.08,11.5c-2.83,5.04-4.25,11.02-4.25,17.92c0,6.91,1.41,12.95,4.25,18.13    c2.83,5.18,6.56,9.15,11.19,11.91c4.63,2.76,9.56,4.14,14.81,4.14c5.39,0,10.43-1.35,15.12-4.04c4.69-2.69,8.42-6.56,11.19-11.6    c2.76-5.04,4.14-11.08,4.14-18.13C891.93,502.08,890.55,496.03,887.79,490.99z"></path>			<path class="st2" d="M1051.85,517.82h-80.37c0.69,8.29,3.59,14.78,8.7,19.47c5.11,4.7,11.39,7.04,18.85,7.04    c8.23,0,14.65-2.7,19.26-8.11c3.09-3.63,7.59-5.77,12.36-5.77l16.93,0c2.89,0,4.84,2.95,3.72,5.61    c-3.61,8.55-9.29,15.77-17.05,21.64c-9.39,7.12-20.92,10.67-34.6,10.67c-11.05,0-20.96-2.45-29.73-7.35    c-8.77-4.9-15.61-11.84-20.51-20.82c-4.9-8.98-7.35-19.34-7.35-31.08c0-11.88,2.41-22.3,7.25-31.28    c4.83-8.98,11.6-15.88,20.3-20.72c8.7-4.83,18.71-7.25,30.04-7.25c10.91,0,20.68,2.35,29.32,7.04    c8.63,4.7,15.33,11.36,20.1,19.99c4.77,8.63,7.15,18.54,7.15,29.73c0,2.69-0.12,5.21-0.35,7.56    C1055.67,516.25,1053.93,517.82,1051.85,517.82z M1026.18,498.35c-0.14-7.46-2.83-13.43-8.08-17.92    c-5.25-4.49-11.67-6.73-19.27-6.73c-7.18,0-13.23,2.18-18.13,6.53c-4.9,4.35-7.91,10.4-9.01,18.13H1026.18z"></path>		</g>		<g id="ege_Line">			<path class="st5" d="M837.28,568.67H750.5c2.14-0.49,9.35-2.67,14.69-6.68h58.74C829.27,566,835.14,568.17,837.28,568.67z"></path>			<path class="st5" d="M980.05,568.67h-55.99v-6.68h42.64C972.04,566,977.9,568.17,980.05,568.67z"></path>		</g>		<path id="o" class="st2" d="M459.44,495.64c0,14.12-3.26,26.76-9.77,37.92c-6.51,11.18-15.38,19.91-26.62,26.21   c-11.24,6.31-23.57,9.46-37,9.46c-13.43,0-25.77-3.15-37-9.46c-11.24-6.3-20.15-15.03-26.73-26.21   c-6.57-11.16-9.86-23.8-9.86-37.92c0-13.97,3.3-26.55,9.86-37.73c6.58-11.16,15.49-19.9,26.73-26.2c11.23-6.31,23.57-9.46,37-9.46   c3.33,0,6.6,0.19,9.79,0.58l-0.38,1.03l-8.81,24.3c-0.21-0.01-0.4-0.01-0.61-0.01c-8.63,0-16.27,1.92-22.92,5.75   c-6.64,3.83-11.81,9.35-15.52,16.54c-3.7,7.2-5.55,15.59-5.55,25.19c0,9.6,1.85,18.02,5.55,25.28   c3.71,7.26,8.88,12.84,15.52,16.75c6.65,3.9,14.29,5.86,22.92,5.86c8.63,0,16.24-1.96,22.82-5.86c6.58-3.9,11.72-9.49,15.42-16.75   c3.7-7.26,5.55-15.69,5.55-25.28c0-9.6-1.85-17.99-5.55-25.19c-3.7-7.19-8.84-12.71-15.42-16.54c-1.74-1.01-3.54-1.89-5.41-2.63   c-2.55-1.02-5.25-1.79-8.09-2.31l7.84-24.9l9.47-30.09l12.9-40.96c1.54-0.52,3.06-1.12,4.55-1.79c0.09-0.02,0.18-0.07,0.27-0.11   l-11.33,42.13l-3.48,12.93l-5.34,19.82c4.46,1.47,8.76,3.37,12.9,5.7c11.16,6.3,20.01,15.03,26.51,26.2   C456.18,469.09,459.44,481.66,459.44,495.64z"></path>		<g id="CLL">			<path class="st2" d="M162.33,457.62c6.37-11.17,15.07-19.87,26.11-26.11c11.03-6.23,23.4-9.35,37.1-9.35    c16.03,0,30.08,4.11,42.14,12.33c10.45,7.13,18.18,16.63,23.17,28.49c1.13,2.67-0.81,5.63-3.71,5.63l-23.1,0    c-2.48,0-4.76-1.33-6.04-3.46c-3.1-5.15-7.1-9.13-12.01-11.95c-5.96-3.42-12.85-5.14-20.66-5.14c-8.36,0-15.8,1.95-22.3,5.86    c-6.51,3.91-11.58,9.42-15.21,16.55c-3.63,7.13-5.45,15.49-5.45,25.08c0,9.46,1.81,17.78,5.45,24.97    c3.63,7.19,8.7,12.74,15.21,16.65c6.51,3.91,13.94,5.86,22.3,5.86c7.81,0,14.7-1.75,20.66-5.24c4.91-2.88,8.92-6.9,12.01-12.06    c1.28-2.13,3.55-3.46,6.04-3.46h23.13c2.89,0,4.82,2.95,3.71,5.62c-4.99,11.99-12.69,21.53-23.1,28.61    c-11.99,8.15-26.07,12.23-42.24,12.23c-13.7,0-26.07-3.12-37.1-9.35c-11.03-6.23-19.73-14.9-26.11-26    c-6.37-11.1-9.56-23.71-9.56-37.82C152.77,481.43,155.96,468.79,162.33,457.62z"></path>			<path class="st2" d="M509.38,545.89h35.87c6.3,0,11.41,5.11,11.41,11.41v11.41H480.6V425.22h5.68c12.76,0,23.1,10.34,23.1,23.1    V545.89z"></path>			<path class="st2" d="M603.73,545.89h32.83c7.98,0,14.45,6.47,14.45,14.45v8.37h-76.06V425.22h5.68c12.76,0,23.1,10.34,23.1,23.1    V545.89z"></path>		</g>	</g>	<g id="Lock">		<path id="L" class="st2" d="M202.53,350.03h60.32c12.23,0,22.14,9.91,22.14,22.14v22.14H152.33v-278.5h6.08   c24.36,0,44.11,19.75,44.11,44.11V350.03z"></path>		<g id="K">			<path class="st5" d="M865.67,388.24l-70.48-0.4c-3.2-0.02-6.22-1.48-8.22-3.97l-19.54-24.38l-37.18-46.4l-0.03-0.03l-17.39-21.71    v0.15l-13.41-16.74l30.47-38.57l33.47-42.39l4.09-5.14l19.85-24.92v0c1.48-1.86,3.72-2.94,6.1-2.94h66.06    c2.09,0,3.19,2.46,1.81,4.02l-32.1,36.34l-38.74,43.86l-26.27,29.67l0.04,0.04l-0.17,0.18l43.94,48.99L865.67,388.24z"></path>			<path class="st2" d="M857.73,388.24h-65.72c-1.84,0-3.59-0.84-4.74-2.28l-89.23-111.19l88.4-111.65    c1.15-1.46,2.91-2.31,4.77-2.31h59.92c2.08,0,3.19,2.46,1.81,4.02l-96.79,109.63L857.73,388.24z"></path>		</g>		<g id="Cap">			<path class="st2" d="M539.28,262.87c-0.24,1.06-0.43,2.01-0.69,2.94c-0.17,0.6-0.45,0.89-1.26,0.98    c-2.07,0.25-1.86-1.03-1.71-2.4c-0.82,0.65-0.26,2.11-1.47,2.19c-1.3,0.08-0.58-1.34-1.15-1.88c-0.63,1.85-1.61,2.4-1.9,1.11    c-0.16-0.73,0.19-1.54-0.54-2.65c-0.32,2.24-1.38,2.88-3.39,2.55c-1.98-0.33-1.12-1.93-1.64-3.03c-0.16,0.29-0.24,0.42-0.31,0.55    c-0.35,0.6,0.1,1.95-0.93,1.77c-0.9-0.15-0.21-1.26-0.15-1.88c0.59-5.73,1.81-11.3,4.89-16.29c0.34-0.56,0.34-0.9,0.02-1.47    c-1.86-3.25-0.92-6.77,2.37-8.51c0.9-0.48,0.96-0.98,0.94-1.81c-0.09-6.48-1.71-12.73-2.91-19.04c-1.24-6.46-2.14-12.92-0.9-19.5    c0.59-3.1,0.59-3.07-2.63-2.56c-7.99,1.26-15.99,2.49-23.98,3.77c-0.98,0.16-1.45,0.13-1.3-1.06c0.76-6.04-1.05-11.55-3.76-16.79    c-5.21-10.1-13.29-17.51-22.62-23.69c-10.11-6.69-21.19-11.2-32.97-13.93c-13.62-3.15-27.34-3.9-41.08-0.7    c-9.41,2.19-18,6-24.59,13.41c-1.29,1.46-2.54,2.98-3.21,4.81c-0.55,1.51-1.07,1.05-1.9,0.33c-4.94-4.29-9.9-8.56-14.85-12.83    c-2.98-2.57-5.95-5.15-8.94-7.7c-1.15-0.98-2.15-2.01-1.61-3.68c0.5-1.57,1.83-1.91,3.27-2.13    c33.8-5.29,67.59-10.58,101.38-15.91c2.76-0.44,5.11,0.13,7.25,1.98c15.51,13.42,31.06,26.8,46.59,40.19    c10.24,8.83,20.49,17.67,30.73,26.51c2.63,2.27,2.85,2.78,1.65,6.03c-2.49,6.69-2.36,13.47-1.07,20.34    c1.14,6.1,2.71,12.13,3.05,18.36c0.05,0.89,0.11,1.78,0.08,2.66c-0.08,1.87-0.21,3.61,1.36,5.19c1.17,1.18,1.07,2.97,0.57,4.59    c-0.18,0.57-0.41,1.07,0.08,1.68c3.35,4.16,4.38,9.12,4.75,14.29c0.13,1.82,0.14,3.66,0.32,5.48c0.12,1.19-0.33,1.77-1.46,1.92    c-0.16,0.02-0.33,0.04-0.49,0.07c-2.77,0.38-3.05,0.15-3.41-2.57C539.66,264.04,539.78,263.45,539.28,262.87z"></path>			<path class="st3" d="M489.02,223.06c-1.51-3.19-3.29-6.58-5.63-9.61c-7.23-9.36-16.47-16.24-26.81-21.75    c-8.13-4.33-16.7-7.56-25.66-9.69c-15.82-3.77-31.7-4.65-47.59-0.33c-5.49,1.49-10.69,3.69-15.55,7.04    c-0.12-1.12,0.4-1.87,0.64-2.67c2.13-6.96,3.94-14.1,6.02-21.07c1.49-5,5.26-8.32,9.28-11.3c6.91-5.12,14.85-7.65,23.27-8.81    c16.39-2.26,32.18,0.27,47.51,6.22c10.45,4.06,19.96,9.64,28.08,17.44c5.68,5.46,10.25,11.67,12.64,19.3    c1.32,4.23,1.62,8.45,0.35,12.77C493.39,208.04,491.13,215.65,489.02,223.06z"></path>			<path class="st2" d="M488.49,225.08c-1.51-3.19-3.46-6.46-5.81-9.5c-7.25-9.37-16.51-16.25-26.87-21.77    c-8.15-4.34-16.74-7.57-25.71-9.71c-15.86-3.78-31.76-4.67-47.68-0.36c-5.5,1.49-10.71,3.68-15.57,7.04    c1.03-4.44,4.98-16.57,7.06-23.55c1.49-5,4.87-8.52,8.9-11.5c6.92-5.12,14.88-7.65,23.3-8.8c16.42-2.25,32.24,0.29,47.6,6.25    c10.47,4.06,20.01,9.65,28.14,17.45c5.69,5.46,10.28,11.67,12.68,19.31c1.33,4.23,1.63,8.45,0.36,12.77    C492.69,210.18,490.6,217.68,488.49,225.08z"></path>		</g>		<path id="o_1_" class="st2" d="M404.36,190c-56.42,0-102.16,45.74-102.16,102.16s45.74,102.16,102.16,102.16   c0.61,0,1.22,0,1.82-0.02l0.02-0.07l14.38-39.67c-5.18,1.35-10.62,2.07-16.22,2.07c-35.6,0-64.46-28.86-64.46-64.46   c0-35.6,28.86-64.46,64.46-64.46s64.46,28.86,64.46,64.46c0,24.31-13.46,45.47-33.34,56.44c-0.26,0.15-0.5,0.28-0.75,0.41   l-9.74,41.16l-0.51,2.15c10.03-1.99,19.53-5.46,28.25-10.17c32.02-17.23,53.79-51.08,53.79-90   C506.51,235.74,460.77,190,404.36,190z M430.14,351.24c-1.48,0.67-3,1.26-4.55,1.79c-0.05,0.01-0.1,0.04-0.15,0.05l-12.83,40.68   l-0.07,0.24c0.05,0,0.1-0.01,0.15-0.01c1.41-0.12,2.8-0.26,4.18-0.44c0.64-0.07,1.29-0.16,1.92-0.26c0.1-0.01,0.18-0.02,0.28-0.04   l11.33-42.13C430.32,351.17,430.22,351.22,430.14,351.24z"></path>		<g id="c">			<path class="st5" d="M685.32,346.05c-38.43,0-69.6-32.3-69.6-72.13c0-39.84,31.17-72.14,69.6-72.14c9.27,0,18.1,1.87,26.18,5.28    c2.83,1.2,6.11,0.3,7.98-2.15l17.56-23.01c2.56-3.35,1.51-8.24-2.22-10.18c-14.89-7.76-31.7-12.12-49.5-12.12    c-60.92,0-110.31,51.18-110.31,114.33c0,63.13,49.39,114.31,110.31,114.31c17.6,0,34.23-4.26,48.99-11.87    c3.76-1.94,4.81-6.86,2.22-10.22l-17.73-22.99c-1.86-2.41-5.1-3.3-7.91-2.14C702.98,344.28,694.35,346.05,685.32,346.05z"></path>			<path class="st2" d="M681.67,346.05c-38.43,0-69.6-32.3-69.6-72.13c0-39.84,31.17-72.14,69.6-72.14c9.25,0,18.08,1.86,26.14,5.26    c2.86,1.21,6.16,0.31,8.05-2.16l17.54-22.98c2.56-3.35,1.51-8.24-2.23-10.19c-14.89-7.76-31.69-12.12-49.49-12.12    c-60.92,0-110.31,51.18-110.31,114.33c0,63.13,49.39,114.31,110.31,114.31c17.59,0,34.22-4.26,48.98-11.86    c3.77-1.94,4.82-6.87,2.23-10.23l-17.71-22.96c-1.87-2.43-5.13-3.32-7.97-2.15C699.3,344.28,690.68,346.05,681.67,346.05z"></path>		</g>		<path id="lock_icon" class="st5" d="M405.43,317.93c-3.01,0-6.02-0.11-9.03,0.04c-2.09,0.1-2.66-0.52-2.28-2.63   c1.23-6.84,2.3-13.7,3.39-20.56c0.22-1.38,0.51-2.55-1.17-3.71c-9.71-6.65-9.4-19.82,0.47-26.17c5.98-3.85,14.15-3.62,19.59,0.56   c5.24,4.03,7.46,11.11,5.49,17.59c-1.04,3.41-2.96,6.28-6.09,7.95c-2,1.06-2.17,2.34-1.87,4.24c1.02,6.35,1.85,12.73,2.93,19.07   c0.45,2.64,0.24,4.06-3.03,3.69c-2.77-0.31-5.6-0.06-8.4-0.06C405.43,317.93,405.43,317.93,405.43,317.93z"></path>		<path id="Line" class="st5" d="M865.81,388.68v5.64H446.37c4.29-2.03,5.82-3.65,8.44-6.08h410.55   C865.61,388.24,865.81,388.44,865.81,388.68z"></path>	</g></g></svg>